<?xml version="1.0" encoding="utf-8"?>
<svg viewBox="0 0 1000 1000" xmlns="http://www.w3.org/2000/svg">
  <ellipse style="fill: rgb(35, 35, 35);" cx="500" cy="500" rx="500" ry="500"/>
  <ellipse style="fill: rgb(223, 192, 73);" cx="500" cy="500" rx="430" ry="430"/>
  <ellipse style="fill: rgb(56, 56, 56);" cx="500" cy="500" rx="380" ry="380"/>
  <path d="M 806.508 724.661 L 769.503 699.016 C 780.655 683.939 790.572 667.894 799.104 651.029 L 840.057 669.778 C 830.409 689.065 819.169 707.417 806.508 724.661 Z M 500 165 C 495.438 165 490.898 165.091 486.381 165.272 L 485.171 120.284 C 490.09 120.095 495.034 120 500 120 C 675.09 120 822.522 238.417 866.577 399.532 L 823.364 412.155 C 784.77 269.75 654.618 165 500 165 Z M 178.259 406.373 L 135.394 392.584 C 166.727 286.06 243.474 198.979 343.232 153.742 L 360.671 195.259 C 272.942 235.435 205.565 312.38 178.259 406.373 Z M 500 880 C 462.785 880 426.82 874.65 392.831 864.678 L 405.316 821.432 C 435.341 830.262 467.117 835 500 835 C 565.208 835 626.065 816.369 677.538 784.139 L 702.74 821.456 C 644.068 858.538 574.54 880 500 880 Z M 238.107 775.341 L 269.436 743.034 C 278.003 751.164 286.999 758.846 296.387 766.042 L 269.086 801.817 C 258.288 793.543 247.947 784.703 238.107 775.341 Z M 197.409 643.931 L 156.492 662.696 C 137.571 622.817 125.39 579.12 121.419 533.075 L 166.36 530.396 C 169.987 570.726 180.762 608.997 197.409 643.931 Z" style="fill: rgb(88, 88, 88);"/>
  <path d="M 835 500 C 835 509.967 834.565 519.833 833.712 529.579 L 498.632 508.677 L 501.33 507.302 L 498.95 507.542 L 758.393 286.777 C 806.248 344.704 835 418.994 835 500 Z M 269.435 743.034 L 492.338 513.169 L 492.481 513.047 L 493.394 834.936 C 406.667 833.259 328.011 798.623 269.435 743.034 Z M 798.537 652.147 C 760.304 727.015 694.736 785.6 614.992 814.742 L 496.503 512.5 Z M 249.328 277.76 C 310.697 208.59 400.258 165 500 165 C 556.933 165 610.548 179.202 657.497 204.257 L 494.232 506.707 L 492.45 502.161 L 492.461 505.957 Z M 167.48 540.969 C 165.843 527.541 165 513.869 165 500 C 165 488.394 165.59 476.926 166.742 465.624 L 482.187 509.232 Z" style="fill: rgb(71, 71, 71);"/>
  <ellipse style="fill: rgb(35, 35, 35);" cx="500" cy="500" rx="290" ry="290"/>
  <path d="M 500 835 C 483.008 835 466.312 833.735 450 831.294 L 450 168.706 C 466.312 166.265 483.008 165 500 165 C 516.992 165 533.688 166.265 550 168.706 L 550 831.294 C 533.688 833.735 516.992 835 500 835 Z" style="fill: rgb(35, 35, 35);"/>
  <path d="M 835 500 C 835 516.992 833.735 533.688 831.294 550 L 168.706 550 C 166.265 533.688 165 516.992 165 500 C 165 483.008 166.265 466.312 168.706 450 L 831.294 450 C 833.735 466.312 835 483.008 835 500 Z" style="fill: rgb(35, 35, 35);"/>
  <g style="" transform="matrix(1.058931, 0, 0, 1.058931, -50.882381, -30.604301)">
    <path d="M 352.313 406.527 L 627.965 406.527 L 589.594 464.39 L 352.313 464.39 L 352.313 406.527 Z" style="fill: rgb(224, 193, 74);"/>
    <path d="M 352.375 315.788 L 688.137 315.788 L 649.766 373.651 L 352.375 373.651 L 352.375 315.788 Z" style="fill: rgb(255, 255, 255);">
      <title>F Top Bar</title>
    </path>
    <rect x="47.317" y="186.869" width="221.464" height="57.863" style="fill: rgb(255, 255, 255);" transform="matrix(0, 1, -1, 0, 597.292786, 268.530029)">
      <title>F Left Bar</title>
    </rect>
    <path d="M 409.831 539.159 L 540.011 539.159 L 409.831 735.469 L 409.831 539.159 Z" style="fill: rgb(224, 193, 74);"/>
  </g>
  <ellipse style="stroke: rgb(0, 0, 0); fill: rgb(255, 255, 255);" cx="566.626" cy="658.89" rx="15" ry="15"/>
  <ellipse style="stroke: rgb(0, 0, 0); fill: rgb(255, 255, 255);" cx="631.694" cy="604.772" rx="30" ry="30"/>
  <ellipse style="stroke: rgb(0, 0, 0); fill: rgb(255, 255, 255);" cx="693.033" cy="554.896" rx="15" ry="15"/>
</svg>